<svg width="149" height="39" viewBox="0 0 149 39" fill="none" xmlns="http://www.w3.org/2000/svg">
<path d="M0.121525 7.73798L3.11913 8.3051V31.9214L0 32.3265V35H15.3931V32.3265L10.046 31.8809V24.5084C10.6942 24.5894 11.6259 24.6299 12.8411 24.6299C16.7299 24.6299 19.7275 23.6712 21.8339 21.7538C21.5919 19.5354 24.8193 17.5721 24.9736 14.5032C21.5122 14.0908 18.9149 12.3613 18.9149 10.2901C18.9149 10.2779 18.9157 10.2655 18.9165 10.2532C18.917 10.2446 18.9176 10.2361 18.9178 10.2276H18.9149V9.35579L18.9149 9.35038C18.9149 8.88118 19.0482 8.42949 19.2948 8.00666L17.7041 7.08844V6.65206L17.3289 6.86867C17.1654 6.96295 16.9517 7.00927 16.7291 7.00927C16.6553 7.00927 16.5805 7.00415 16.5062 6.99399C16.5311 6.99816 16.5537 7.0012 16.5721 7.00235C16.4874 7.37849 16.2565 7.74206 15.975 7.90482L15.013 8.45992C14.9332 8.5063 14.8531 8.53421 14.7755 8.54365L14.3965 9.35039H15.5133V10.7139C18.8243 11.1877 21.2735 12.8767 21.2735 14.8875C21.2735 14.9052 21.2733 14.9228 21.2729 14.9404L21.2735 15.2115V15.8273C21.2735 18.2056 17.8479 20.1339 13.6221 20.1339C9.39625 20.1339 5.97066 18.2059 5.97066 15.8273C5.97066 15.8152 5.97145 15.8029 5.97224 15.7906C5.9728 15.7819 5.97336 15.7731 5.97363 15.7645H5.97066V14.8875C5.97094 12.9299 8.29199 11.2771 11.4701 10.7539V9.35039H12.7929C12.7051 9.17021 12.6966 8.95335 12.7882 8.75841L13.3612 7.5389C13.5211 7.19699 13.9299 7.04953 14.2722 7.21033L14.3853 7.26348C14.5008 7.02481 14.6706 6.81987 14.8628 6.70892L15.6052 6.28012C15.6107 6.11276 15.7107 5.9649 15.8875 5.86266L16.8495 5.30755C17.2048 5.10212 17.7999 5.12362 18.2042 5.35717C18.371 5.45339 18.4871 5.57788 18.5402 5.71279L19.2304 5.31431C17.7029 4.87768 15.7892 4.65936 13.4892 4.65936C12.22 4.65936 10.8022 4.71337 9.23587 4.82139C7.99362 4.87541 7.15645 4.90241 6.72436 4.90241H0.121525V7.73798Z" fill="url(#paint0_linear_103_232)"/>
<path d="M14.4748 8.47486L14.0635 9.35039H13.1691C13.0331 9.2423 12.9834 9.05082 13.0605 8.88673L13.6335 7.66722C13.7234 7.4759 13.9524 7.39306 14.144 7.48309L14.2791 7.54654C14.2464 7.66642 14.2284 7.78869 14.2283 7.90713C14.2283 8.16631 14.3177 8.37114 14.4748 8.47486Z" fill="url(#paint1_linear_103_232)"/>
<path d="M14.9486 8.14914C15.0231 7.86774 14.9078 7.56751 14.6632 7.40574C14.587 7.54064 14.5638 7.63208 14.5713 7.7204C14.6699 7.83179 14.7008 7.99397 14.6335 8.13709L14.6075 8.19258C14.5583 8.13497 14.53 8.03313 14.53 7.9068C14.53 7.55018 14.7513 7.12078 15.0133 6.9696L15.6977 6.57471C15.7607 6.66626 15.8543 6.74985 15.9742 6.81905C16.0702 6.87433 16.1771 6.91777 16.289 6.9491L16.2761 6.94644C16.2076 7.2369 16.0293 7.52504 15.8242 7.64347L14.9486 8.14914Z" fill="url(#paint2_linear_103_232)"/>
<path d="M18.2708 5.86839L17.704 6.19566L17.7041 6.30387L17.178 6.60766C17.0334 6.69121 16.8217 6.72175 16.6092 6.70243C16.609 6.43176 16.5111 6.22354 16.3402 6.1247C16.2771 6.08854 16.2083 6.06932 16.1364 6.0669L16.9997 5.56857C17.2614 5.41672 17.7437 5.43988 18.053 5.61819C18.1832 5.69303 18.2632 5.78581 18.2708 5.86839Z" fill="url(#paint3_linear_103_232)"/>
<path d="M22.8957 7.34282C21.4637 7.90883 20.463 8.79704 20.226 9.8203C20.5656 11.2867 22.4732 12.4755 24.9709 12.8364C24.8831 11.2188 24.5396 9.85692 23.9403 8.75069C23.6662 8.23406 23.318 7.76477 22.8957 7.34282Z" fill="url(#paint4_linear_103_232)"/>
<path d="M16.1244 6.55804C16.0533 6.51692 15.9971 6.47063 15.9595 6.42361L15.9753 6.41449C16.0355 6.3791 16.1219 6.34602 16.1894 6.38538C16.2542 6.4234 16.2945 6.50897 16.3038 6.63848C16.24 6.61668 16.1794 6.58983 16.1244 6.55804Z" fill="url(#paint5_linear_103_232)"/>
<path d="M13.0623 3.07862L16.0599 3.64574V5.76306L16.8494 5.30751C17.2047 5.10208 17.7998 5.12358 18.2041 5.35713C18.3709 5.45335 18.487 5.57784 18.5402 5.71276L20.3554 4.6646L22.2876 5.77989C23.5089 5.31538 24.9813 5.04412 26.5662 5.04412C30.7917 5.04412 34.2177 6.97211 34.2177 9.35034C34.2177 9.36797 34.2175 9.38558 34.2171 9.40316L34.2177 9.67408V10.2901C34.2177 12.6683 30.7921 14.5966 26.5662 14.5966C22.3404 14.5966 18.9148 12.6686 18.9148 10.2901C18.9148 10.2778 18.9156 10.2655 18.9164 10.2532C18.917 10.2446 18.9175 10.236 18.9178 10.2276H18.9148L18.9148 9.35034C18.9148 8.88114 19.0482 8.42945 19.2947 8.00662L17.7041 7.0884V6.652L17.3288 6.86863C17.1653 6.96291 16.9516 7.00922 16.729 7.00922C16.6566 7.00922 16.5833 7.00431 16.5105 6.99454C16.5337 6.99834 16.5548 7.00111 16.5721 7.00219C16.4961 7.33975 16.3024 7.66718 16.0599 7.84844V10.8048C19.0903 11.3777 21.2735 12.9893 21.2735 14.8878C21.2735 14.9055 21.2734 14.9231 21.273 14.9408L21.2735 15.2118V15.8277C21.2735 17.7262 19.0905 19.338 16.0599 19.911V27.262L12.9408 27.6671V30.3406H28.3339V27.6671L22.9868 27.2215V19.849C23.635 19.93 24.5666 19.9705 25.7819 19.9705C29.6707 19.9705 32.6683 19.0118 34.7747 17.0945C36.8811 15.1771 37.9344 12.49 37.9344 9.03333C37.9344 7.03492 37.5833 5.38759 36.8811 4.09133C36.179 2.76806 34.9908 1.75535 33.3164 1.05321C31.6421 0.351071 29.3466 0 26.43 0C25.1608 0 23.743 0.0540104 22.1767 0.162031C20.9344 0.216043 20.0972 0.243049 19.6652 0.243049H13.0623V3.07862Z" fill="url(#paint6_linear_103_232)"/>
<path d="M16.0599 18.2157C18.1357 17.7336 19.6618 16.6542 19.9624 15.3578C19.6618 14.0616 18.1357 12.9821 16.0599 12.4999V18.2157Z" fill="url(#paint7_linear_103_232)"/>
<path d="M16.0599 7.41987C16.1584 7.2851 16.236 7.11609 16.276 6.94628L16.287 6.94852C16.2081 6.92633 16.1317 6.89812 16.0599 6.86398V7.41987Z" fill="url(#paint8_linear_103_232)"/>
<path d="M16.0599 6.51649C16.0797 6.53077 16.1012 6.54465 16.1243 6.55799C16.1793 6.5898 16.2399 6.61667 16.3038 6.63847C16.2945 6.50888 16.2542 6.42325 16.1894 6.38522C16.1497 6.36208 16.1035 6.36397 16.0599 6.37666V6.51649Z" fill="url(#paint9_linear_103_232)"/>
<path d="M17.7039 6.19562L17.7041 6.3038L17.1779 6.60762C17.0333 6.69115 16.8217 6.72169 16.6092 6.7024C16.6091 6.43166 16.5112 6.2234 16.3402 6.12454C16.2771 6.0884 16.2084 6.06918 16.1365 6.06674L16.9996 5.56853C17.2613 5.41668 17.7436 5.43984 18.0529 5.61815C18.1831 5.69299 18.2631 5.78578 18.2707 5.86837L17.7039 6.19562Z" fill="url(#paint10_linear_103_232)"/>
<path d="M48.71 17C48.578 17 48.47 16.958 48.386 16.874C48.302 16.79 48.26 16.682 48.26 16.55V4.85C48.26 4.718 48.302 4.61 48.386 4.526C48.47 4.442 48.578 4.4 48.71 4.4H53.75C54.746 4.4 55.61 4.556 56.342 4.868C57.086 5.168 57.662 5.624 58.07 6.236C58.49 6.848 58.7 7.622 58.7 8.558C58.7 9.482 58.49 10.244 58.07 10.844C57.662 11.444 57.086 11.888 56.342 12.176C55.61 12.464 54.746 12.608 53.75 12.608H51.608V16.55C51.608 16.682 51.56 16.79 51.464 16.874C51.38 16.958 51.272 17 51.14 17H48.71ZM51.554 10.124H53.66C54.176 10.124 54.584 9.992 54.884 9.728C55.196 9.464 55.352 9.062 55.352 8.522C55.352 8.066 55.22 7.682 54.956 7.37C54.692 7.058 54.26 6.902 53.66 6.902H51.554V10.124ZM63.6641 17.18C62.9801 17.18 62.3681 17.024 61.8281 16.712C61.3001 16.4 60.8861 15.944 60.5861 15.344C60.2861 14.732 60.1361 13.988 60.1361 13.112V8.09C60.1361 7.958 60.1781 7.85 60.2621 7.766C60.3461 7.682 60.4541 7.64 60.5861 7.64H62.8361C62.9681 7.64 63.0761 7.682 63.1601 7.766C63.2441 7.85 63.2861 7.958 63.2861 8.09V13.004C63.2861 14.18 63.8141 14.768 64.8701 14.768C65.3621 14.768 65.7521 14.618 66.0401 14.318C66.3401 14.006 66.4901 13.568 66.4901 13.004V8.09C66.4901 7.958 66.5321 7.85 66.6161 7.766C66.7001 7.682 66.8081 7.64 66.9401 7.64H69.1901C69.3221 7.64 69.4301 7.682 69.5141 7.766C69.5981 7.85 69.6401 7.958 69.6401 8.09V16.55C69.6401 16.682 69.5981 16.79 69.5141 16.874C69.4301 16.958 69.3221 17 69.1901 17H67.1021C66.9821 17 66.8741 16.958 66.7781 16.874C66.6941 16.79 66.6521 16.682 66.6521 16.55V15.866C66.3401 16.298 65.9321 16.628 65.4281 16.856C64.9361 17.072 64.3481 17.18 63.6641 17.18ZM75.6093 17.18C74.8293 17.18 74.1633 17.096 73.6113 16.928C73.0713 16.748 72.6273 16.532 72.2793 16.28C71.9433 16.028 71.6913 15.77 71.5233 15.506C71.3553 15.23 71.2653 14.996 71.2533 14.804C71.2413 14.672 71.2833 14.564 71.3793 14.48C71.4753 14.384 71.5773 14.336 71.6853 14.336H73.7373C73.7733 14.336 73.8033 14.342 73.8273 14.354C73.8513 14.366 73.8873 14.39 73.9353 14.426C74.0913 14.51 74.2473 14.618 74.4033 14.75C74.5593 14.87 74.7393 14.978 74.9433 15.074C75.1473 15.17 75.3933 15.218 75.6813 15.218C76.0173 15.218 76.2993 15.152 76.5273 15.02C76.7553 14.888 76.8693 14.69 76.8693 14.426C76.8693 14.234 76.8153 14.078 76.7073 13.958C76.5993 13.826 76.3773 13.7 76.0413 13.58C75.7173 13.46 75.2253 13.34 74.5653 13.22C73.9413 13.076 73.3953 12.89 72.9273 12.662C72.4593 12.422 72.0993 12.116 71.8473 11.744C71.5953 11.36 71.4693 10.898 71.4693 10.358C71.4693 9.878 71.6253 9.416 71.9373 8.972C72.2493 8.528 72.7053 8.168 73.3053 7.892C73.9053 7.604 74.6433 7.46 75.5193 7.46C76.2153 7.46 76.8153 7.544 77.3193 7.712C77.8353 7.868 78.2673 8.072 78.6153 8.324C78.9753 8.576 79.2453 8.834 79.4253 9.098C79.6053 9.362 79.7013 9.602 79.7133 9.818C79.7253 9.938 79.6893 10.046 79.6053 10.142C79.5213 10.226 79.4253 10.268 79.3173 10.268H77.4453C77.3973 10.268 77.3493 10.262 77.3013 10.25C77.2533 10.226 77.2113 10.202 77.1753 10.178C77.0313 10.106 76.8873 10.01 76.7433 9.89C76.5993 9.77 76.4313 9.662 76.2393 9.566C76.0473 9.47 75.8073 9.422 75.5193 9.422C75.1953 9.422 74.9433 9.494 74.7633 9.638C74.5833 9.782 74.4933 9.968 74.4933 10.196C74.4933 10.352 74.5413 10.496 74.6373 10.628C74.7453 10.76 74.9553 10.88 75.2673 10.988C75.5913 11.096 76.0893 11.216 76.7613 11.348C77.5893 11.48 78.2493 11.696 78.7413 11.996C79.2333 12.284 79.5813 12.626 79.7853 13.022C79.9893 13.406 80.0913 13.814 80.0913 14.246C80.0913 14.822 79.9173 15.332 79.5693 15.776C79.2333 16.22 78.7293 16.568 78.0573 16.82C77.3853 17.06 76.5693 17.18 75.6093 17.18ZM84.5145 17.18C83.8665 17.18 83.2845 17.06 82.7685 16.82C82.2645 16.568 81.8625 16.232 81.5625 15.812C81.2625 15.392 81.1125 14.918 81.1125 14.39C81.1125 13.538 81.4605 12.866 82.1565 12.374C82.8525 11.87 83.7765 11.528 84.9285 11.348L87.1785 11.006V10.754C87.1785 10.322 87.0885 9.992 86.9085 9.764C86.7285 9.536 86.3985 9.422 85.9185 9.422C85.5825 9.422 85.3065 9.488 85.0905 9.62C84.8865 9.752 84.7245 9.932 84.6045 10.16C84.4965 10.316 84.3465 10.394 84.1545 10.394H82.1385C82.0065 10.394 81.9045 10.358 81.8325 10.286C81.7605 10.202 81.7305 10.106 81.7425 9.998C81.7425 9.782 81.8205 9.536 81.9765 9.26C82.1445 8.972 82.3965 8.69 82.7325 8.414C83.0685 8.138 83.5005 7.91 84.0285 7.73C84.5565 7.55 85.1925 7.46 85.9365 7.46C86.7165 7.46 87.3825 7.55 87.9345 7.73C88.4865 7.91 88.9305 8.162 89.2665 8.486C89.6145 8.81 89.8725 9.194 90.0405 9.638C90.2085 10.07 90.2925 10.55 90.2925 11.078V16.55C90.2925 16.682 90.2445 16.79 90.1485 16.874C90.0645 16.958 89.9625 17 89.8425 17H87.7545C87.6225 17 87.5145 16.958 87.4305 16.874C87.3465 16.79 87.3045 16.682 87.3045 16.55V15.92C87.1485 16.148 86.9385 16.358 86.6745 16.55C86.4105 16.742 86.0985 16.892 85.7385 17C85.3905 17.12 84.9825 17.18 84.5145 17.18ZM85.3605 15.128C85.7085 15.128 86.0205 15.056 86.2965 14.912C86.5845 14.756 86.8065 14.522 86.9625 14.21C87.1305 13.886 87.2145 13.484 87.2145 13.004V12.752L85.6845 13.022C85.1205 13.118 84.7065 13.268 84.4425 13.472C84.1905 13.664 84.0645 13.892 84.0645 14.156C84.0645 14.36 84.1245 14.534 84.2445 14.678C84.3645 14.822 84.5205 14.936 84.7125 15.02C84.9045 15.092 85.1205 15.128 85.3605 15.128ZM97.0414 17C96.2734 17 95.6074 16.88 95.0434 16.64C94.4914 16.388 94.0654 16.004 93.7654 15.488C93.4654 14.96 93.3154 14.282 93.3154 13.454V9.998H91.9114C91.7794 9.998 91.6654 9.956 91.5694 9.872C91.4854 9.788 91.4434 9.68 91.4434 9.548V8.09C91.4434 7.958 91.4854 7.85 91.5694 7.766C91.6654 7.682 91.7794 7.64 91.9114 7.64H93.3154V4.67C93.3154 4.538 93.3574 4.43 93.4414 4.346C93.5374 4.262 93.6454 4.22 93.7654 4.22H95.8534C95.9854 4.22 96.0934 4.262 96.1774 4.346C96.2614 4.43 96.3034 4.538 96.3034 4.67V7.64H98.5534C98.6854 7.64 98.7934 7.682 98.8774 7.766C98.9614 7.85 99.0034 7.958 99.0034 8.09V9.548C99.0034 9.68 98.9614 9.788 98.8774 9.872C98.7934 9.956 98.6854 9.998 98.5534 9.998H96.3034V13.202C96.3034 13.61 96.3814 13.934 96.5374 14.174C96.6934 14.414 96.9574 14.534 97.3294 14.534H98.7154C98.8474 14.534 98.9554 14.576 99.0394 14.66C99.1234 14.744 99.1654 14.852 99.1654 14.984V16.55C99.1654 16.682 99.1234 16.79 99.0394 16.874C98.9554 16.958 98.8474 17 98.7154 17H97.0414ZM48.71 35C48.578 35 48.47 34.958 48.386 34.874C48.302 34.79 48.26 34.682 48.26 34.55V22.85C48.26 22.718 48.302 22.61 48.386 22.526C48.47 22.442 48.578 22.4 48.71 22.4H53.75C54.746 22.4 55.61 22.556 56.342 22.868C57.086 23.168 57.662 23.624 58.07 24.236C58.49 24.848 58.7 25.622 58.7 26.558C58.7 27.482 58.49 28.244 58.07 28.844C57.662 29.444 57.086 29.888 56.342 30.176C55.61 30.464 54.746 30.608 53.75 30.608H51.608V34.55C51.608 34.682 51.56 34.79 51.464 34.874C51.38 34.958 51.272 35 51.14 35H48.71ZM51.554 28.124H53.66C54.176 28.124 54.584 27.992 54.884 27.728C55.196 27.464 55.352 27.062 55.352 26.522C55.352 26.066 55.22 25.682 54.956 25.37C54.692 25.058 54.26 24.902 53.66 24.902H51.554V28.124ZM64.4406 35.18C63.0246 35.18 61.8966 34.796 61.0566 34.028C60.2166 33.26 59.7786 32.12 59.7426 30.608C59.7426 30.524 59.7426 30.416 59.7426 30.284C59.7426 30.152 59.7426 30.05 59.7426 29.978C59.7786 29.03 59.9886 28.22 60.3726 27.548C60.7686 26.864 61.3086 26.348 61.9926 26C62.6886 25.64 63.4986 25.46 64.4226 25.46C65.4786 25.46 66.3486 25.67 67.0326 26.09C67.7286 26.51 68.2506 27.08 68.5986 27.8C68.9466 28.52 69.1206 29.342 69.1206 30.266V30.698C69.1206 30.83 69.0726 30.938 68.9766 31.022C68.8926 31.106 68.7906 31.148 68.6706 31.148H62.9106C62.9106 31.16 62.9106 31.178 62.9106 31.202C62.9106 31.226 62.9106 31.25 62.9106 31.274C62.9226 31.622 62.9826 31.94 63.0906 32.228C63.1986 32.516 63.3666 32.744 63.5946 32.912C63.8226 33.08 64.0986 33.164 64.4226 33.164C64.6626 33.164 64.8606 33.128 65.0166 33.056C65.1846 32.972 65.3226 32.882 65.4306 32.786C65.5386 32.678 65.6226 32.588 65.6826 32.516C65.7906 32.396 65.8746 32.324 65.9346 32.3C66.0066 32.264 66.1146 32.246 66.2586 32.246H68.4906C68.6106 32.246 68.7066 32.282 68.7786 32.354C68.8626 32.414 68.8986 32.504 68.8866 32.624C68.8746 32.828 68.7726 33.074 68.5806 33.362C68.3886 33.65 68.1066 33.938 67.7346 34.226C67.3746 34.502 66.9186 34.73 66.3666 34.91C65.8146 35.09 65.1726 35.18 64.4406 35.18ZM62.9106 29.366H65.9526V29.33C65.9526 28.946 65.8926 28.61 65.7726 28.322C65.6646 28.034 65.4906 27.812 65.2506 27.656C65.0226 27.5 64.7466 27.422 64.4226 27.422C64.0986 27.422 63.8226 27.5 63.5946 27.656C63.3786 27.812 63.2106 28.034 63.0906 28.322C62.9706 28.61 62.9106 28.946 62.9106 29.33V29.366ZM71.2581 35C71.1261 35 71.0181 34.958 70.9341 34.874C70.8501 34.79 70.8081 34.682 70.8081 34.55V26.09C70.8081 25.958 70.8501 25.85 70.9341 25.766C71.0181 25.682 71.1261 25.64 71.2581 25.64H73.3281C73.4601 25.64 73.5681 25.682 73.6521 25.766C73.7361 25.85 73.7781 25.958 73.7781 26.09V26.774C74.0901 26.402 74.4981 26.09 75.0021 25.838C75.5061 25.586 76.1001 25.46 76.7841 25.46C77.4801 25.46 78.0921 25.616 78.6201 25.928C79.1601 26.24 79.5801 26.702 79.8801 27.314C80.1921 27.914 80.3481 28.652 80.3481 29.528V34.55C80.3481 34.682 80.3001 34.79 80.2041 34.874C80.1201 34.958 80.0181 35 79.8981 35H77.6301C77.5101 35 77.4021 34.958 77.3061 34.874C77.2221 34.79 77.1801 34.682 77.1801 34.55V29.636C77.1801 29.072 77.0421 28.64 76.7661 28.34C76.5021 28.028 76.1061 27.872 75.5781 27.872C75.0861 27.872 74.6901 28.028 74.3901 28.34C74.1021 28.64 73.9581 29.072 73.9581 29.636V34.55C73.9581 34.682 73.9101 34.79 73.8141 34.874C73.7301 34.958 73.6281 35 73.5081 35H71.2581ZM86.9469 38.96C86.0229 38.96 85.2549 38.84 84.6429 38.6C84.0429 38.36 83.5629 38.072 83.2029 37.736C82.8549 37.4 82.6029 37.064 82.4469 36.728C82.2909 36.404 82.2069 36.146 82.1949 35.954C82.1829 35.822 82.2249 35.714 82.3209 35.63C82.4169 35.546 82.5309 35.504 82.6629 35.504H84.9489C85.0569 35.504 85.1469 35.528 85.2189 35.576C85.3029 35.636 85.3689 35.732 85.4169 35.864C85.4769 35.996 85.5549 36.134 85.6509 36.278C85.7589 36.422 85.9029 36.536 86.0829 36.62C86.2749 36.716 86.5329 36.764 86.8569 36.764C87.2169 36.764 87.5169 36.704 87.7569 36.584C87.9969 36.476 88.1769 36.29 88.2969 36.026C88.4169 35.774 88.4769 35.432 88.4769 35V33.794C88.2009 34.094 87.8469 34.34 87.4149 34.532C86.9829 34.712 86.4609 34.802 85.8489 34.802C85.2369 34.802 84.6969 34.712 84.2289 34.532C83.7609 34.352 83.3709 34.082 83.0589 33.722C82.7469 33.362 82.5009 32.924 82.3209 32.408C82.1529 31.892 82.0509 31.298 82.0149 30.626C82.0029 30.314 82.0029 30.002 82.0149 29.69C82.0509 29.042 82.1529 28.46 82.3209 27.944C82.4889 27.428 82.7289 26.984 83.0409 26.612C83.3649 26.24 83.7609 25.958 84.2289 25.766C84.6969 25.562 85.2369 25.46 85.8489 25.46C86.4969 25.46 87.0489 25.586 87.5049 25.838C87.9729 26.078 88.3569 26.384 88.6569 26.756V26.09C88.6569 25.97 88.6989 25.868 88.7829 25.784C88.8669 25.688 88.9749 25.64 89.1069 25.64H91.1769C91.3089 25.64 91.4169 25.688 91.5009 25.784C91.5969 25.868 91.6449 25.97 91.6449 26.09V34.748C91.6449 35.66 91.4589 36.428 91.0869 37.052C90.7149 37.676 90.1809 38.15 89.4849 38.474C88.7889 38.798 87.9429 38.96 86.9469 38.96ZM86.8209 32.462C87.2049 32.462 87.5169 32.378 87.7569 32.21C87.9969 32.042 88.1709 31.826 88.2789 31.562C88.3989 31.298 88.4649 31.016 88.4769 30.716C88.4889 30.584 88.4949 30.398 88.4949 30.158C88.4949 29.918 88.4889 29.738 88.4769 29.618C88.4649 29.306 88.3989 29.018 88.2789 28.754C88.1709 28.49 87.9969 28.28 87.7569 28.124C87.5169 27.956 87.2049 27.872 86.8209 27.872C86.4249 27.872 86.1069 27.956 85.8669 28.124C85.6389 28.292 85.4709 28.52 85.3629 28.808C85.2669 29.096 85.2069 29.414 85.1829 29.762C85.1709 30.026 85.1709 30.296 85.1829 30.572C85.2069 30.92 85.2669 31.238 85.3629 31.526C85.4709 31.814 85.6389 32.042 85.8669 32.21C86.1069 32.378 86.4249 32.462 86.8209 32.462ZM96.5731 35.18C95.9251 35.18 95.3431 35.06 94.8271 34.82C94.3231 34.568 93.9211 34.232 93.6211 33.812C93.3211 33.392 93.1711 32.918 93.1711 32.39C93.1711 31.538 93.5191 30.866 94.2151 30.374C94.9111 29.87 95.8351 29.528 96.9871 29.348L99.2371 29.006V28.754C99.2371 28.322 99.1471 27.992 98.9671 27.764C98.7871 27.536 98.4571 27.422 97.9771 27.422C97.6411 27.422 97.3651 27.488 97.1491 27.62C96.9451 27.752 96.7831 27.932 96.6631 28.16C96.5551 28.316 96.4051 28.394 96.2131 28.394H94.1971C94.0651 28.394 93.9631 28.358 93.8911 28.286C93.8191 28.202 93.7891 28.106 93.8011 27.998C93.8011 27.782 93.8791 27.536 94.0351 27.26C94.2031 26.972 94.4551 26.69 94.7911 26.414C95.1271 26.138 95.5591 25.91 96.0871 25.73C96.6151 25.55 97.2511 25.46 97.9951 25.46C98.7751 25.46 99.4411 25.55 99.9931 25.73C100.545 25.91 100.989 26.162 101.325 26.486C101.673 26.81 101.931 27.194 102.099 27.638C102.267 28.07 102.351 28.55 102.351 29.078V34.55C102.351 34.682 102.303 34.79 102.207 34.874C102.123 34.958 102.021 35 101.901 35H99.8131C99.6811 35 99.5731 34.958 99.4891 34.874C99.4051 34.79 99.3631 34.682 99.3631 34.55V33.92C99.2071 34.148 98.9971 34.358 98.7331 34.55C98.4691 34.742 98.1571 34.892 97.7971 35C97.4491 35.12 97.0411 35.18 96.5731 35.18ZM97.4191 33.128C97.7671 33.128 98.0791 33.056 98.3551 32.912C98.6431 32.756 98.8651 32.522 99.0211 32.21C99.1891 31.886 99.2731 31.484 99.2731 31.004V30.752L97.7431 31.022C97.1791 31.118 96.7651 31.268 96.5011 31.472C96.2491 31.664 96.1231 31.892 96.1231 32.156C96.1231 32.36 96.1831 32.534 96.3031 32.678C96.4231 32.822 96.5791 32.936 96.7711 33.02C96.9631 33.092 97.1791 33.128 97.4191 33.128ZM107.874 35.18C107.298 35.18 106.776 35.09 106.308 34.91C105.852 34.718 105.456 34.442 105.12 34.082C104.796 33.71 104.544 33.266 104.364 32.75C104.184 32.222 104.082 31.622 104.058 30.95C104.046 30.71 104.04 30.5 104.04 30.32C104.04 30.128 104.046 29.918 104.058 29.69C104.082 29.042 104.184 28.46 104.364 27.944C104.544 27.428 104.796 26.984 105.12 26.612C105.444 26.24 105.84 25.958 106.308 25.766C106.776 25.562 107.298 25.46 107.874 25.46C108.474 25.46 108.99 25.562 109.422 25.766C109.854 25.958 110.22 26.21 110.52 26.522V22.67C110.52 22.538 110.562 22.43 110.646 22.346C110.73 22.262 110.838 22.22 110.97 22.22H113.166C113.286 22.22 113.388 22.262 113.472 22.346C113.568 22.43 113.616 22.538 113.616 22.67V34.55C113.616 34.682 113.568 34.79 113.472 34.874C113.388 34.958 113.286 35 113.166 35H111.132C111 35 110.892 34.958 110.808 34.874C110.724 34.79 110.682 34.682 110.682 34.55V33.974C110.394 34.322 110.022 34.61 109.566 34.838C109.11 35.066 108.546 35.18 107.874 35.18ZM108.846 32.768C109.254 32.768 109.572 32.684 109.8 32.516C110.04 32.336 110.214 32.108 110.322 31.832C110.442 31.556 110.508 31.256 110.52 30.932C110.532 30.692 110.538 30.464 110.538 30.248C110.538 30.032 110.532 29.81 110.52 29.582C110.508 29.282 110.442 29.006 110.322 28.754C110.202 28.49 110.022 28.28 109.782 28.124C109.542 27.956 109.23 27.872 108.846 27.872C108.45 27.872 108.132 27.956 107.892 28.124C107.664 28.292 107.502 28.52 107.406 28.808C107.31 29.096 107.25 29.414 107.226 29.762C107.19 30.134 107.19 30.506 107.226 30.878C107.25 31.226 107.31 31.544 107.406 31.832C107.502 32.12 107.664 32.348 107.892 32.516C108.132 32.684 108.45 32.768 108.846 32.768ZM119.176 35.18C118.492 35.18 117.88 35.024 117.34 34.712C116.812 34.4 116.398 33.944 116.098 33.344C115.798 32.732 115.648 31.988 115.648 31.112V26.09C115.648 25.958 115.69 25.85 115.774 25.766C115.858 25.682 115.966 25.64 116.098 25.64H118.348C118.48 25.64 118.588 25.682 118.672 25.766C118.756 25.85 118.798 25.958 118.798 26.09V31.004C118.798 32.18 119.326 32.768 120.382 32.768C120.874 32.768 121.264 32.618 121.552 32.318C121.852 32.006 122.002 31.568 122.002 31.004V26.09C122.002 25.958 122.044 25.85 122.128 25.766C122.212 25.682 122.32 25.64 122.452 25.64H124.702C124.834 25.64 124.942 25.682 125.026 25.766C125.11 25.85 125.152 25.958 125.152 26.09V34.55C125.152 34.682 125.11 34.79 125.026 34.874C124.942 34.958 124.834 35 124.702 35H122.614C122.494 35 122.386 34.958 122.29 34.874C122.206 34.79 122.164 34.682 122.164 34.55V33.866C121.852 34.298 121.444 34.628 120.94 34.856C120.448 35.072 119.86 35.18 119.176 35.18ZM130.077 35.18C129.429 35.18 128.847 35.06 128.331 34.82C127.827 34.568 127.425 34.232 127.125 33.812C126.825 33.392 126.675 32.918 126.675 32.39C126.675 31.538 127.023 30.866 127.719 30.374C128.415 29.87 129.339 29.528 130.491 29.348L132.741 29.006V28.754C132.741 28.322 132.651 27.992 132.471 27.764C132.291 27.536 131.961 27.422 131.481 27.422C131.145 27.422 130.869 27.488 130.653 27.62C130.449 27.752 130.287 27.932 130.167 28.16C130.059 28.316 129.909 28.394 129.717 28.394H127.701C127.569 28.394 127.467 28.358 127.395 28.286C127.323 28.202 127.293 28.106 127.305 27.998C127.305 27.782 127.383 27.536 127.539 27.26C127.707 26.972 127.959 26.69 128.295 26.414C128.631 26.138 129.063 25.91 129.591 25.73C130.119 25.55 130.755 25.46 131.499 25.46C132.279 25.46 132.945 25.55 133.497 25.73C134.049 25.91 134.493 26.162 134.829 26.486C135.177 26.81 135.435 27.194 135.603 27.638C135.771 28.07 135.855 28.55 135.855 29.078V34.55C135.855 34.682 135.807 34.79 135.711 34.874C135.627 34.958 135.525 35 135.405 35H133.317C133.185 35 133.077 34.958 132.993 34.874C132.909 34.79 132.867 34.682 132.867 34.55V33.92C132.711 34.148 132.501 34.358 132.237 34.55C131.973 34.742 131.661 34.892 131.301 35C130.953 35.12 130.545 35.18 130.077 35.18ZM130.923 33.128C131.271 33.128 131.583 33.056 131.859 32.912C132.147 32.756 132.369 32.522 132.525 32.21C132.693 31.886 132.777 31.484 132.777 31.004V30.752L131.247 31.022C130.683 31.118 130.269 31.268 130.005 31.472C129.753 31.664 129.627 31.892 129.627 32.156C129.627 32.36 129.687 32.534 129.807 32.678C129.927 32.822 130.083 32.936 130.275 33.02C130.467 33.092 130.683 33.128 130.923 33.128ZM138.336 35C138.204 35 138.096 34.958 138.012 34.874C137.928 34.79 137.886 34.682 137.886 34.55V26.09C137.886 25.958 137.928 25.85 138.012 25.766C138.096 25.682 138.204 25.64 138.336 25.64H140.406C140.538 25.64 140.646 25.682 140.73 25.766C140.814 25.85 140.856 25.958 140.856 26.09V26.774C141.168 26.402 141.576 26.09 142.08 25.838C142.584 25.586 143.178 25.46 143.862 25.46C144.558 25.46 145.17 25.616 145.698 25.928C146.238 26.24 146.658 26.702 146.958 27.314C147.27 27.914 147.426 28.652 147.426 29.528V34.55C147.426 34.682 147.378 34.79 147.282 34.874C147.198 34.958 147.096 35 146.976 35H144.708C144.588 35 144.48 34.958 144.384 34.874C144.3 34.79 144.258 34.682 144.258 34.55V29.636C144.258 29.072 144.12 28.64 143.844 28.34C143.58 28.028 143.184 27.872 142.656 27.872C142.164 27.872 141.768 28.028 141.468 28.34C141.18 28.64 141.036 29.072 141.036 29.636V34.55C141.036 34.682 140.988 34.79 140.892 34.874C140.808 34.958 140.706 35 140.586 35H138.336Z" fill="white"/>
<defs>
<linearGradient id="paint0_linear_103_232" x1="12.4868" y1="4.65936" x2="12.4868" y2="35" gradientUnits="userSpaceOnUse">
<stop stop-color="white"/>
<stop offset="0.293315" stop-color="white"/>
<stop offset="1" stop-color="white"/>
</linearGradient>
<linearGradient id="paint1_linear_103_232" x1="12.4868" y1="4.65936" x2="12.4868" y2="35" gradientUnits="userSpaceOnUse">
<stop stop-color="white"/>
<stop offset="0.293315" stop-color="white"/>
<stop offset="1" stop-color="white"/>
</linearGradient>
<linearGradient id="paint2_linear_103_232" x1="12.4868" y1="4.65936" x2="12.4868" y2="35" gradientUnits="userSpaceOnUse">
<stop stop-color="white"/>
<stop offset="0.293315" stop-color="white"/>
<stop offset="1" stop-color="white"/>
</linearGradient>
<linearGradient id="paint3_linear_103_232" x1="12.4868" y1="4.65936" x2="12.4868" y2="35" gradientUnits="userSpaceOnUse">
<stop stop-color="white"/>
<stop offset="0.293315" stop-color="white"/>
<stop offset="1" stop-color="white"/>
</linearGradient>
<linearGradient id="paint4_linear_103_232" x1="12.4868" y1="4.65936" x2="12.4868" y2="35" gradientUnits="userSpaceOnUse">
<stop stop-color="white"/>
<stop offset="0.293315" stop-color="white"/>
<stop offset="1" stop-color="white"/>
</linearGradient>
<linearGradient id="paint5_linear_103_232" x1="12.4868" y1="4.65936" x2="12.4868" y2="35" gradientUnits="userSpaceOnUse">
<stop stop-color="white"/>
<stop offset="0.293315" stop-color="white"/>
<stop offset="1" stop-color="white"/>
</linearGradient>
<linearGradient id="paint6_linear_103_232" x1="25.4376" y1="0" x2="25.4376" y2="30.3406" gradientUnits="userSpaceOnUse">
<stop stop-color="white"/>
<stop offset="1" stop-color="white"/>
</linearGradient>
<linearGradient id="paint7_linear_103_232" x1="25.4376" y1="0" x2="25.4376" y2="30.3406" gradientUnits="userSpaceOnUse">
<stop stop-color="white"/>
<stop offset="1" stop-color="white"/>
</linearGradient>
<linearGradient id="paint8_linear_103_232" x1="25.4376" y1="0" x2="25.4376" y2="30.3406" gradientUnits="userSpaceOnUse">
<stop stop-color="white"/>
<stop offset="1" stop-color="white"/>
</linearGradient>
<linearGradient id="paint9_linear_103_232" x1="25.4376" y1="0" x2="25.4376" y2="30.3406" gradientUnits="userSpaceOnUse">
<stop stop-color="white"/>
<stop offset="1" stop-color="white"/>
</linearGradient>
<linearGradient id="paint10_linear_103_232" x1="25.4376" y1="0" x2="25.4376" y2="30.3406" gradientUnits="userSpaceOnUse">
<stop stop-color="white"/>
<stop offset="1" stop-color="white"/>
</linearGradient>
</defs>
</svg>
